<?xml version="1.0" standalone="no"?>
<!DOCTYPE svg PUBLIC "-//W3C//DTD SVG 20010904//EN"
 "http://www.w3.org/TR/2001/REC-SVG-20010904/DTD/svg10.dtd">
<svg version="1.0" xmlns="http://www.w3.org/2000/svg"
 width="700.000000pt" height="700.000000pt" viewBox="0 0 700.000000 700.000000"
 preserveAspectRatio="xMidYMid meet">
<metadata>
Created by potrace 1.11, written by Peter Selinger 2001-2013
</metadata>
<g transform="translate(0.000000,700.000000) scale(0.100000,-0.100000)"
fill="#000000" stroke="none">
<path d="M4362 5728 c-100 -299 -247 -736 -327 -973 -80 -236 -147 -437 -149
-445 -2 -8 -31 -95 -64 -192 l-61 -178 37 -1 c101 -3 425 1 429 5 2 2 42 128
88 280 47 152 89 285 94 295 10 17 31 18 395 18 l386 0 31 -101 c17 -55 49
-159 71 -231 21 -71 49 -160 60 -197 11 -38 24 -68 27 -69 37 -4 481 -3 481 2
0 5 -306 923 -323 969 -3 8 -106 318 -229 688 l-223 672 -270 0 -271 0 -182
-542z m537 -186 c78 -260 173 -574 191 -634 l8 -26 -294 0 c-162 0 -294 2
-294 6 0 6 67 230 157 522 19 63 40 131 45 150 6 19 14 46 19 60 4 14 20 64
34 113 14 48 32 87 38 87 7 0 47 -117 96 -278z"/>
<path d="M1705 6120 c-75 -16 -142 -77 -164 -149 -8 -28 -11 -607 -11 -2192
l0 -2154 -263 262 c-144 143 -278 269 -297 279 -50 26 -143 24 -197 -4 -100
-52 -143 -178 -95 -283 15 -32 143 -167 484 -507 404 -403 470 -464 513 -481
60 -22 119 -20 172 8 58 30 958 937 978 985 80 193 -130 376 -310 271 -22 -13
-152 -136 -289 -274 -138 -138 -251 -249 -253 -247 -2 1 -3 973 -3 2160 l0
2157 -24 47 c-29 57 -59 86 -109 107 -45 19 -90 23 -132 15z"/>
<path d="M3980 3020 l0 -190 549 0 c491 0 549 -2 547 -16 -1 -8 -73 -117 -160
-242 -423 -610 -883 -1274 -922 -1331 l-44 -63 0 -148 c0 -109 3 -149 13 -152
6 -2 392 -4 857 -4 l845 1 3 184 c1 108 -1 187 -7 190 -5 4 -264 6 -576 6
-312 0 -569 3 -571 7 -4 6 126 210 146 228 3 3 43 61 90 130 88 131 204 298
217 315 5 6 25 35 45 65 45 68 72 106 378 549 l245 355 0 153 1 152 -828 0
-828 0 0 -189z"/>
</g>
</svg>
